# xmcd
# Track frame offsets:
# 150
# 10599
# 21330
# 34549
# 47089
# 59735
# 71625
# 84624
# 94664
# 104083
# 115814
# 126580
# 135165
# 146947
# 158937
# 171258
# 186908
# 197015
# 207224
#
# Disc length: 2986 seconds
# Revision: 0
# Processed by: cddbd v1.5.1PL0 Copyright (c) Steve Scherf et al.
# Submitted via: VisiTrax 2.9.10.228 - For more info visit www.synapsa.com
#
DISCID=180ba813
DTITLE=Jimmy Little - The Definitive Collection Disc 1 1959-1972
DYEAR=2004
DGENRE=
TTITLE0=Danny Boy
TTITLE1=Little By Little
TTITLE2=Shadow Of The Boomerang
TTITLE3=Kissing Someone New
TTITLE4=Mary Said
TTITLE5=Little Green Valley
TTITLE6=Too Many Parties and Too Many Pals
TTITLE7=Royal Telephone
TTITLE8=One Road
TTITLE9=Smile
TTITLE10=Eternally
TTITLE11=Christmas In The Air
TTITLE12=Too Many Times
TTITLE13=Walking Talking Teardrop
TTITLE14=Wildflower
TTITLE15=Husbands And Wives
TTITLE16=There's A Heartache Following Me
TTITLE17=Anne (Don't Go Runnin')
TTITLE18=Winterwood
EXTD=Festival Records
EXTT0=
EXTT1=
EXTT2=
EXTT3=
EXTT4=
EXTT5=
EXTT6=
EXTT7=
EXTT8=
EXTT9=
EXTT10=
EXTT11=
EXTT12=
EXTT13=
EXTT14=
EXTT15=
EXTT16=
EXTT17=
EXTT18=
PLAYORDER=
